<?xml version="1.0" encoding="utf-8"?>
<!-- Svg Vector Icons : http://www.onlinewebfonts.com/icon -->
<!DOCTYPE svg PUBLIC "-//W3C//DTD SVG 1.1//EN" "http://www.w3.org/Graphics/SVG/1.1/DTD/svg11.dtd">
<svg version="1.1" xmlns="http://www.w3.org/2000/svg" xmlns:xlink="http://www.w3.org/1999/xlink" x="0px" y="0px" viewBox="0 0 1000 1000" enable-background="new 0 0 1000 1000" xml:space="preserve">
<metadata> Svg Vector Icons : http://www.onlinewebfonts.com/icon </metadata>
<g><path d="M790.5,717c-36.4,17.6-163.1,63.4-163.1,63.4L477.6,771c0,0,85.7-23.8,118.9-31.3c33.3-7.4,18.8-45,0.4-45c-18.4,0-178.7,6.7-178.7,6.7l-106.4,38.3L339.9,918c0,0,21.9-37.5,43.8-37.5c21.9,0,212,5.1,237.8,0c25.8-5.1,183-112.7,201.8-125.2C842.1,742.8,826.8,699.3,790.5,717z"/><path d="M168.6,758.8V990l163.1-30.5l-40.8-222.1L168.6,758.8z"/><path d="M656.2,435.3c0,44.6,0,138.7,0,138.7c0,47.5-86.8,76.5-123.8,86.9c-7.9,2.4-5.6,4.8,0,4.8c5.4,0,121.8,0,133.6,0c0.6,0,1.2,0,1.2,0c11.7,0,128.2,0,133.5,0c5.7,0,8-2.4,0-4.8c-37-10.4-119.7-39.3-119.7-86.9c0-0.9-0.1-1.9-0.1-2.8h-0.1c0-15.3,0-95.7,0-135.9c0-44.5,78.7-90.9,122-162c43.3-71.1-34-263.3-34-263.3s-60.6,5.8-100.3,5.8c-39.7,0-100.3-5.8-100.3-5.8s-77.3,192.2-34,263.3C577.5,344.5,656.2,390.9,656.2,435.3z M558.2,147.7c3.5-20.7,8.1-39.7,12.5-55.8c8.9-32.3,17-53.1,17-53.1s-1.9,22.3-5.5,55.2c-1.9,16.5-4,35.6-6.2,56.1c-2.1,20.4-4.5,42.3-4.1,63.2c-0.6,3.3,0.9,10.8,1.6,15.1c1.3,4.3,2.3,8.6,4.5,13.4c3.6,9.4,8.4,18.6,13.3,27.3c10,17.4,21.1,33.1,30.6,46.5c19.4,26.7,33.3,44.3,33.3,44.3S636.8,347,613,323.2c-11.8-11.9-24.9-26.7-37-44.5c-5.7-9-11.9-18.5-16.3-29.4c-2.4-5.1-4.3-11.4-6-17.7c-1.1-6.4-2.3-10-2.1-17.7C551.6,190.5,554.4,168.3,558.2,147.7z"/></g>
</svg>